<?xml version="1.0" encoding="UTF-8"?>
<svg id="Layer_1" xmlns="http://www.w3.org/2000/svg" version="1.1" viewBox="0 0 918.87 1010.45">
  <!-- Generator: Adobe Illustrator 30.0.0, SVG Export Plug-In . SVG Version: 2.1.1 Build 123)  -->
  <defs>
    <style>
      .st0 {
        fill: #cd488e;
      }

      .st1 {
        fill: #cc428e;
      }

      .st2 {
        fill: #cc458e;
      }

      .st3 {
        fill: #cc448e;
      }

      .st4 {
        fill: #cc438f;
      }

      .st5 {
        fill: #c8367e;
      }

      .st6 {
        fill: #cc418e;
      }

      .st7 {
        fill: #cc468e;
      }
    </style>
  </defs>
  <path class="st6" d="M389.23,586.51c-1.06.42-2.12.84-3.64.79-2.32-.83-4.17-1.5-6.03-1.5-35.38-.06-70.75-.04-106.13-.04-2.33,0-4.74-.36-6.94.15-1.2.28-2.05,2.05-3.06,3.15-2.27,2.97.53,4.25,2.13,5.55,7.72,6.3,15.58,12.45,23.4,18.64,23.07,18.26,46.14,36.52,69.24,54.75,8.81,6.95,11.05,15.55,7.41,26.14-7.73,22.52-15.18,45.14-22.78,67.7-6.7,19.89-13.45,39.77-20.1,59.67-.33.97-.22,3,.17,3.14,1.29.45,3.08.78,4.19.21,4.85-2.51,9.69-5.12,14.24-8.13,31.12-20.62,62.15-41.36,93.23-62.04,5.39-3.59,10.74-7.24,16.31-10.53,7.28-4.3,14.99-4.66,22.14-.02,21.16,13.73,42.14,27.72,63.17,41.65,19.93,13.2,39.82,26.46,59.77,39.63,1.4.92,3.17,1.28,6.37,2.52-1.7-5.46-2.86-9.47-4.2-13.42-8.01-23.63-16.07-47.24-24.09-70.86-5.79-17.05-11.96-33.99-17.15-51.22-2.68-8.89-1.01-17.69,8.13-24.7,18.72-14.36,36.85-29.5,55.26-44.28,10.37-8.33,20.84-16.53,31.17-24.9,3.05-2.47,5.8-5.3,9.89-9.08-4.78-.64-8-1.45-11.22-1.44-35.16.12-70.32.32-105.47.61-12.38.1-22.75-3.07-27.62-15.87-1.41-3.69-2.72-7.43-3.93-11.19-8.84-27.52-17.66-55.05-26.43-82.6-3.25-10.22-6.3-20.5-9.53-30.73-2.98-9.45-1.72-12.77,7.25-16.23,12.03-4.64,24.18-8.94,36.27-13.42,6.03-2.23,12.05-4.5,18.04-6.84,4.97-1.95,7.65.03,9.71,4.63,7.14,15.99,14.11,32.08,21.95,47.73,9.84,19.63,20.84,38.61,37.6,53.44,8.68,7.68,19.1,11.31,30.37,13.29,17.61,3.1,34.73-.68,51.98-3.02,13.95-1.89,27.94-3.53,41.88-5.47,13.96-1.94,27.88-4.21,41.84-6.17,13.95-1.96,27.94-3.64,41.89-5.58,10.17-1.41,20.26-3.47,30.47-4.44,7.03-.66,14.77-1.67,21.16.51,14.41,4.92,16.76,24.5,4.66,34.7-8.63,7.28-17.81,13.9-26.75,20.81-21.04,16.25-42.06,32.52-63.14,48.72-20.69,15.89-41.47,31.66-62.16,47.56-11.73,9.01-23.27,18.27-35.05,27.2-5.24,3.98-8.29,9.29-9.17,15.44-.53,3.74.64,7.85,1.61,11.65,6.58,25.77,13.3,51.5,20.01,77.24,6.66,25.56,13.31,51.13,20.07,76.66,5.32,20.12,11.01,40.15,16.1,60.33,1.71,6.78,3.78,13.75.66,20.95-4.03,9.27-14.04,14.59-23.25,10.52-14.49-6.41-28.66-13.59-42.73-20.91-41.17-21.43-82.16-43.2-123.34-64.6-24.97-12.98-50.21-25.47-75.24-38.33-7.78-3.99-14.77-1.83-21.74,1.84-29.64,15.57-59.28,31.13-88.89,46.74-46.02,24.26-92.02,48.53-138.01,72.85-6.89,3.64-14.16,5.48-21.51,2.63-12.47-4.85-15.33-16.13-12.61-27.59,4.47-18.82,9.66-37.46,14.57-56.17,4.83-18.38,9.74-36.74,14.52-55.14,4.65-17.91,9.15-35.86,13.74-53.79,4.96-19.35,10.12-38.65,14.83-58.05,2.49-10.24-1.09-18.59-9.51-24.95-9.67-7.31-19.28-14.71-28.9-22.09-20.57-15.78-41.11-31.61-61.71-47.36-25.47-19.48-51.01-38.86-76.46-58.37-6.6-5.05-13.32-10.02-19.38-15.67-11.45-10.66-7.4-28.32,7.44-33.05,2.74-.88,5.96-.94,8.86-.56,18.91,2.47,37.78,5.24,56.68,7.77,10.52,1.41,21.09,2.45,31.62,3.84,14.79,1.95,29.55,4.13,44.35,6.1,10.52,1.4,21.06,2.7,31.61,3.89,11.21,1.26,22.42,2.65,33.67,3.43,13.05.91,25.78-1.09,38.22-5.28,14.9-5.02,23.81-16.51,31.64-28.99,17.86-28.46,31.8-58.82,42.19-90.75,4.75-14.59,8.38-29.54,12.56-44.31.44-1.56,1.23-3.03,2.15-5.26,4.42,10.65,8.47,20.65,12.7,30.57,6.3,14.76,12.61,29.52,19.16,44.17,3.16,7.07,8.08,12.39,16.14,14.27,4.54,1.06,6.11,4.21,4.65,8.83-6.73,21.27-13.59,42.5-20.39,63.74-1.11,3.46-2.16,6.93-3.85,10.47-1.3.34-2,.6-2.69.86l1.89,2.55c-.13.58-.25,1.17-.96,1.79-2.1,3.13-3.9,6.12-5.08,9.33-2.17,5.9-4.02,11.93-5.82,17.95-.12.42,1.21,1.27,1.87,1.92-.16.88-.33,1.76-1.09,2.7-1.45.93-2.82,1.68-3.07,2.7-2.07,8.43-6.86,14.2-15.92,16.26.89.95,1.42,1.52,1.96,2.09l-.02-.03Z"/>
  <path class="st1" d="M207.54,384.93c16.47-13.87,35-19.04,55.89-15.33,26.41,4.69,43.92,20.16,52.8,45.11,13.22,37.13-6.76,79.44-46.88,89.57-37.09,9.36-72.01-11.49-82.16-45.7-7.39-24.92-3.26-48.61,15.14-68.47,1.58-1.71,3.29-3.29,5.21-5.17h0Z"/>
  <path class="st6" d="M603.43,422.19c2.64-10.83,6.68-20.6,13.48-28.96,14.32-17.61,32.8-26.49,55.64-25.71,15.08.51,28.64,5.31,40.29,15.04,14.69,12.27,22.97,27.85,24.76,47.06,1.51,16.17-1.69,31.09-10.63,44.54-11.34,17.06-27.33,26.94-47.65,30.11-34.69,5.4-64.89-17.74-73.8-46.65-3.54-11.47-3.99-23.18-2.08-35.43h-.01Z"/>
  <path class="st4" d="M346.53,280.04c-1.7,7.13-2.87,13.99-4.82,20.63-3.52,11.97-12.36,17.89-24.3,18.19-13.97.35-23.17-9.35-25.47-19.61-2.42-10.8-3.81-21.86-5.18-32.87-1.39-11.2-2.68-22.44-3.18-33.7-.72-16.51,11.49-30.95,25.85-36.73,20.99-8.44,41.81-17.33,62.63-26.2,16.74-7.13,33.8-7.22,46.73,7.83,4.98,5.79,10.44,11.21,15.08,17.26,7.58,9.88,14.92,19.96,21.9,30.27,6.74,9.96,7.3,20.41.43,30.72-6.92,10.4-18.09,13.36-30.17,7.89-5.42-2.46-10.84-5-15.97-8.01-7.38-4.33-14.44-5.27-22.59-1.51-8.97,4.14-18.5,7.09-27.78,10.56-7.02,2.63-11.78,7.22-13.17,15.28M346.67,230.32c1.43-3.75.04-7.14-3.14-8.42-2.54-1.02-6.26-.72-8.86.39-3.88,1.66-6.74,2.99-8.03-2.53-.14-.6-.78-1.07-1.11-1.64-2.24-3.9-5.67-4.42-9.44-2.96-3.51,1.35-5.74,6.34-3.36,9.62,4.14,5.7,1.84,7.85-3.51,9.54-1.04.33-2.5,1.09-2.73,1.93-.67,2.51-1.74,5.52-.9,7.65.7,1.79,3.86,3.67,5.92,3.65,3.27-.04,6.53-1.62,10.08-2.63.96,1.77,1.85,3.9,3.15,5.75,2.95,4.18,9.49,4.4,11.49.03,1.1-2.4,1.11-6.06.07-8.5-1.58-3.71-.46-4.92,2.72-6.35,2.61-1.18,4.83-3.25,7.66-5.55M408.78,209.4c2.19-.66,4.51-1.04,6.54-2.03,3.56-1.73,5.33-6.81,3.58-10.22-1.94-3.79-5.47-3.95-9.04-3.08-3.99.97-7.56,5.97-7.57,9.93,0,3.92,2.46,5.02,6.49,5.4M386.01,184.22c-3.87.56-6.26,2.63-6.82,6.61-.61,4.35,1.49,7.56,5.02,9.36,1.69.86,5.61.75,6.2-.27,1.62-2.81,2.7-6.32,2.73-9.56.03-3.55-2.31-6.09-7.12-6.14M371.85,210.65c-5.09,5.93-4.02,10.04,3.26,12.53,4.79,1.64,7.9-.29,9.3-5.77,1.06-4.14-1.04-7.24-5.75-7.84-2.03-.26-4.17.35-6.81,1.08M393.37,224.9c1.4,2.05,2.36,4.95,4.3,5.96,3.75,1.95,8.66-.64,9.67-4.32,1.06-3.87-2.02-7.88-6.73-8.74-5.32-.97-6.6.12-7.24,7.09h0Z"/>
  <path class="st1" d="M533.86,365.12c1.94,4.45,3.57,8.61,5.41,12.68,4.22,9.31-1.04,16.15-7.21,19.02-8.69,4.05-17.46,7.96-26.31,11.63-19.36,8.03-38.79,15.92-58.23,23.78-8.31,3.36-14.93.06-18.22-8.2-5.92-14.87-12.13-29.63-18.34-44.38-1.98-4.71-1.53-5.98,3.09-7.81,17.32-6.89,34.65-13.76,51.89-20.85,15.12-6.22,30.1-12.78,45.17-19.12,5.65-2.38,8.53-1.28,10.97,4.49,3.99,9.43,7.73,18.96,11.78,28.78M490.94,379.81c6.76-2.91,13.52-5.82,20.42-8.79-1.36-3.84-2.98-4.85-6.56-3.37-19.86,8.21-39.84,16.14-59.7,24.35-1.25.52-2.71,2.74-2.56,3.99.3,2.53,2,2.54,4.44,1.53,14.35-5.96,28.82-11.65,43.97-17.71h0Z"/>
  <path class="st2" d="M527.56,275.59c-18.79-6.33-32.68-24.21-32.67-43.75.01-24.98,17.67-45.86,42.65-49.73,24.73-3.83,46.07,12.36,52.13,33.26,6.86,23.63-5.28,49.68-29.27,59.33-10.72,4.31-21.52,4.79-32.84.89M504.67,235.71c2.44,14.16,10.11,24.25,23.42,29.83,1.32.55,3.06.1,4.61.12,0-1.77.32-3.62-.12-5.26-.21-.79-1.84-1.22-2.85-1.78-13.89-7.81-19.38-18.86-16.87-34.25,2.02-12.33,9.63-20.17,20.96-24.25,11.27-4.05,21.98-2.4,31.17,5.65,14.34,12.56,13.6,34.86-1.65,48.16-3.46,3.02-4.33,5.52-.59,9.23,12.69-8.67,18.79-20.03,19.07-35.59.42-23.59-26.89-44.97-51.96-33.44-17.36,7.99-25.97,21.46-25.18,41.6M537.9,239.49c5.14,0,10.29.12,15.42-.09,1.21-.05,2.98-.89,3.45-1.86,2-4.18-.13-10.12-4.21-12.57-2.4-1.44-4.8-2.91-7.29-4.18-1.26-.64-2.82-1.41-4.09-1.21-8.98,1.42-14.64,10.68-12.04,19.91h8.76Z"/>
  <path class="st3" d="M504.93,78.78c-2.25,13.81-3.99,27.29-6.92,40.5-1.89,8.54-13.13,18.06-27.73,16.53-10.06-1.05-18.79-9.5-21.41-20.01-2.48-9.92,1.35-19.01,2.63-28.43.77-5.7,1.98-11.41,3.71-16.89,4.58-14.48,15.09-21.17,29.72-18.41,10.04,1.9,20.44,11.5,20,26.7M496.33,79.64c.62-7.7-2.8-13.44-8.99-17.53-1.2-.79-3.36-.14-5.08-.16.6,1.31.87,3.01,1.86,3.87,4.11,3.56,7.49,7.22,7.57,13.24.05,3.33,1.85,3.67,4.65.57h-.01Z"/>
  <path class="st7" d="M505.1,291.9c2.79,6.93,5.39,13.52,8.2,20.03,1.55,3.59.38,5.27-3.08,6.82-25.47,11.45-50.85,23.09-76.26,34.68-7.98,3.64-16.01,7.16-23.89,11-2.57,1.25-3.78,1.19-4.86-1.64-1.99-5.25-4.38-10.36-6.44-15.58-3.25-8.22-2.11-11.23,5.98-14.98,17.54-8.13,35.18-16.05,52.71-24.2,13.64-6.34,27.22-12.81,40.75-19.38,3.68-1.79,5.99-1.54,6.89,3.24M417.76,354.84c5.26-2.47,9.45-5.39,10.04-12.19.48-5.53,2.56-10.92,3.93-16.37-.48-.34-.96-.67-1.44-1.01-4.36,2.75-10.55,4.53-12.67,8.48-3.59,6.71-4.6,14.8-7.12,23.82,3.14-1.2,4.84-1.85,7.26-2.74M490.02,320.78c2.34-7.84,4.68-15.69,7.02-23.53l-1.59-.79c-2.84,1.21-5.92,2.06-8.44,3.75-2.2,1.47-4.36,3.61-5.46,5.96-1.58,3.38-2.26,7.2-3.16,10.87-.86,3.49-1.5,7.02-2.24,10.54.47.32.95.64,1.42.97,4.02-2.37,8.04-4.73,12.45-7.76M448.37,322.57c-1.7,6.56-3.41,13.12-5.36,20.63,8.48-3.55,16.58-5.34,17.64-15.66.54-5.24,2.38-10.35,3.9-16.62-6.61,3.22-13.13,4.25-16.18,11.66h0Z"/>
  <path class="st0" d="M482.11,168.03c3.42,1.42,8.74.33,7.64,6.1-1.12,5.87-6.11,3.65-9.41,3.27-10.85-1.25-21.66-2.91-32.41-4.85-1.57-.28-3.54-2.79-3.86-4.53-.48-2.61,1.42-4.26,4.36-4.06.5.03,1,0,1.5,0,10.51-.04,10.63-.02,12.14-10.2.17-1.17-1.67-3.35-3.05-3.91-8.1-3.29-14.76-8.24-19.29-15.77-4.87-8.1-6.56-17-5.41-26.29.24-1.95,2.49-3.65,3.82-5.47,1.56,1.87,4.02,3.54,4.51,5.67,1.05,4.61.29,9.72,1.71,14.16,4.16,12.98,16.27,21.93,29.75,21.47,11.2-.39,20.45-5.5,26.28-15.48,1.81-3.09,2.5-6.84,4.32-9.93,1.07-1.81,3.34-2.91,5.07-4.33,1.17,1.74,3.39,3.51,3.33,5.22-.3,9.7-5.51,17.12-12.25,23.56-6.71,6.41-14.86,9.7-24.01,10.26-2.44,8.96-.69,13.99,5.26,15.09h0Z"/>
  <path class="st5" d="M263.85,588.98c.6-1.02,1.45-2.79,2.65-3.07,2.21-.51,4.62-.15,6.94-.15,35.38,0,70.75-.02,106.13.04,1.85,0,3.71.67,5.67,1.41-17.19.46-34.48.58-51.77.62-20.62.04-41.24-.02-61.87.07-2.45.01-4.89.65-7.75,1.08h0Z"/>
  <path class="st5" d="M389.6,586.52c-.9-.58-1.44-1.15-2.32-2.1,9.06-2.06,13.85-7.83,15.92-16.26.25-1.02,1.62-1.77,2.76-2.54-1.85,9.61-5.8,17.71-16.36,20.9h0Z"/>
  <path class="st5" d="M407.51,562.42c-.8-.31-2.14-1.17-2.02-1.58,1.8-6.03,3.65-12.05,5.82-17.95,1.18-3.22,2.98-6.21,4.8-9.2-2.62,9.53-5.54,18.96-8.6,28.73h0Z"/>
  <path class="st5" d="M417.48,531.47c-.76-.56-1.39-1.41-2.02-2.26.69-.26,1.38-.52,2.37-.67.12.95-.04,1.79-.34,2.92h0Z"/>
</svg>